<svg width="20.000000" height="20.000000" viewBox="0 0 20 20" fill="none" xmlns="http://www.w3.org/2000/svg" xmlns:xlink="http://www.w3.org/1999/xlink">
	<desc>
			Created with Pixso.
	</desc>
	<defs/>
	<path id="Vector" d="M10 20C4.47803 20 0 15.522 0 10C0 4.47803 4.47803 0 10 0C15.522 0 20 4.47803 20 10C20 15.522 15.522 20 10 20Z" fill="#3B579D" fill-opacity="1.000000" fill-rule="nonzero"/>
	<path id="f" d="M12.6011 19.9995L12.6011 12.2534L15.2009 12.2534L15.5911 9.23535L12.6011 9.23535L12.6011 7.30762C12.6011 6.43359 12.843 5.8374 14.0969 5.8374L15.6951 5.8374L15.6951 3.13965C15.4189 3.10352 14.469 3.02148 13.365 3.02148C11.061 3.02148 9.48291 4.42725 9.48291 7.01172L9.48291 9.2373L6.87695 9.2373L6.87695 12.2554L9.48291 12.2554L9.48291 19.9995L12.6011 19.9995Z" fill="#FFFFFF" fill-opacity="1.000000" fill-rule="nonzero"/>
</svg>
