<svg width="22.000000" height="22.000000" viewBox="0 0 22 22" fill="none" xmlns="http://www.w3.org/2000/svg" xmlns:xlink="http://www.w3.org/1999/xlink">
	<desc>
			Created with Pixso.
	</desc>
	<defs/>
	<path id="Vector" d="M11 0C8.82422 0 6.69727 0.645142 4.88867 1.85384C3.08008 3.06253 1.66992 4.78049 0.836914 6.79048C0.00488281 8.80048 -0.212891 11.0122 0.210938 13.146C0.635742 15.2798 1.68359 17.2398 3.22168 18.7782C4.75977 20.3166 6.7207 21.3642 8.85449 21.7886C10.9883 22.2131 13.1992 21.9952 15.21 21.1627C17.2197 20.3301 18.9375 18.9202 20.1465 17.1113C21.3545 15.3023 22 13.1756 22 11C22 8.08261 20.8408 5.28473 18.7783 3.22183C16.7148 1.15892 13.917 0 11 0ZM15.707 14.293C15.8027 14.3853 15.8789 14.4956 15.9307 14.6176C15.9834 14.7396 16.0107 14.8708 16.0127 15.0036C16.0137 15.1364 15.9883 15.2681 15.9375 15.391C15.8877 15.5139 15.8135 15.6255 15.7197 15.7194C15.626 15.8133 15.5137 15.8875 15.3906 15.9378C15.2676 15.9881 15.1367 16.0134 15.0039 16.0123C14.8711 16.0111 14.7393 15.9835 14.6172 15.9311C14.4951 15.8787 14.3848 15.8025 14.293 15.707L11 12.414L7.70703 15.707C7.61523 15.8025 7.50488 15.8787 7.38281 15.9311C7.26074 15.9835 7.12891 16.0111 6.99609 16.0123C6.86328 16.0134 6.73242 15.9881 6.60938 15.9378C6.48633 15.8875 6.37402 15.8133 6.28027 15.7194C6.18652 15.6255 6.1123 15.5139 6.0625 15.391C6.01172 15.2681 5.98633 15.1364 5.9873 15.0036C5.98926 14.8708 6.0166 14.7396 6.06934 14.6176C6.12109 14.4956 6.19727 14.3853 6.29297 14.293L9.58594 11L6.29297 7.707C6.19727 7.61475 6.12109 7.50441 6.06934 7.3824C6.0166 7.26041 5.98926 7.12918 5.9873 6.9964C5.98633 6.86362 6.01172 6.73195 6.0625 6.60904C6.1123 6.48615 6.18652 6.3745 6.28027 6.28061C6.37402 6.18671 6.48633 6.11246 6.60938 6.06218C6.73242 6.0119 6.86328 5.9866 6.99609 5.98775C7.12891 5.98891 7.26074 6.01649 7.38281 6.06889C7.50488 6.12131 7.61523 6.19749 7.70703 6.293L11 9.586L14.293 6.293C14.3848 6.19749 14.4951 6.12131 14.6172 6.06889C14.7393 6.01649 14.8711 5.98891 15.0039 5.98775C15.1367 5.9866 15.2676 6.0119 15.3906 6.06218C15.5137 6.11246 15.626 6.18671 15.7197 6.28061C15.8135 6.3745 15.8877 6.48615 15.9375 6.60904C15.9883 6.73195 16.0137 6.86362 16.0127 6.9964C16.0107 7.12918 15.9834 7.26041 15.9307 7.3824C15.8789 7.50441 15.8027 7.61475 15.707 7.707L12.4141 11L15.707 14.293Z" fill="#E3E3E3" fill-opacity="1.000000" fill-rule="nonzero"/>
</svg>
