<svg width="14.000000" height="14.000000" viewBox="0 0 14 14" fill="none" xmlns="http://www.w3.org/2000/svg" xmlns:xlink="http://www.w3.org/1999/xlink">
	<desc>
			Created with Pixso.
	</desc>
	<defs/>
	<path id="Vector" d="M2.81934 6.06281C3.93945 8.26392 5.74023 10.0645 7.94482 11.1844L9.65625 9.46942C9.87012 9.25555 10.1772 9.19336 10.4453 9.27887C11.3169 9.56665 12.2539 9.72223 13.2222 9.72223C13.6538 9.72223 14 10.0684 14 10.5L14 13.2222C14 13.6539 13.6538 14 13.2222 14C5.91895 14 0 8.08112 0 0.777771C0 0.34613 0.350098 0 0.777832 0L3.5 0C3.93164 0 4.27783 0.34613 4.27783 0.777771C4.27783 1.74609 4.43311 2.68335 4.72119 3.55444C4.80664 3.82275 4.74463 4.13 4.53076 4.34387L2.81934 6.06281Z" fill="#3D3D3D" fill-opacity="1.000000" fill-rule="nonzero"/>
</svg>
