<svg width="11.000000" height="13.851868" viewBox="0 0 11 13.8519" fill="none" xmlns="http://www.w3.org/2000/svg" xmlns:xlink="http://www.w3.org/1999/xlink">
	<desc>
			Created with Pixso.
	</desc>
	<defs/>
	<path id="Vector" d="M4.0498 4.45752L4.0498 7.1416L6.94971 7.1416L6.94971 4.45752L5.48779 3.52289L4.0498 4.45752Z" fill="#3D3D3D" fill-opacity="1.000000" fill-rule="nonzero"/>
	<path id="Vector" d="M5.48779 0C2.46826 0 0 2.46838 0 5.48804C0 7.98041 1.72559 10.1852 4.12207 10.8083L5.22461 13.6602C5.27246 13.78 5.36816 13.8519 5.51221 13.8519C5.63184 13.8519 5.75146 13.78 5.7998 13.6602L6.83008 10.8322C9.25049 10.2331 11 8.02832 11 5.51196C10.9761 2.46838 8.53174 0 5.48779 0ZM8.74707 5.63184L7.76465 4.98474L7.76465 7.95642L3.23535 7.95642L3.23535 4.98474L2.25293 5.63184L1.79736 4.96075L5.27246 2.70807C5.41602 2.61218 5.58398 2.61218 5.70361 2.70807L9.17871 4.96075L8.74707 5.63184Z" fill="#3D3D3D" fill-opacity="1.000000" fill-rule="nonzero"/>
</svg>
