<svg width="11.000000" height="13.851868" viewBox="0 0 11 13.8519" fill="none" xmlns="http://www.w3.org/2000/svg" xmlns:xlink="http://www.w3.org/1999/xlink">
	<desc>
			Created with Pixso.
	</desc>
	<defs/>
	<path id="Vector" d="M4.05029 4.45758L4.05029 7.14166L6.9502 7.14166L6.9502 4.45758L5.48828 3.52295L4.05029 4.45758Z" fill="#FFFFFF" fill-opacity="1.000000" fill-rule="nonzero"/>
	<path id="Vector" d="M5.48804 0C2.46851 0 0 2.46838 0 5.48804C0 7.98041 1.72559 10.1852 4.12207 10.8083L5.22437 13.6602C5.27222 13.78 5.36816 13.8519 5.51196 13.8519C5.63184 13.8519 5.75171 13.78 5.79956 13.6602L6.83008 10.8322C9.25049 10.2331 11 8.02832 11 5.51196C10.9761 2.46838 8.53149 0 5.48804 0ZM8.74731 5.63184L7.76465 4.98474L7.76465 7.95642L3.23535 7.95642L3.23535 4.98474L2.25269 5.63184L1.79736 4.96075L5.27222 2.70807C5.41602 2.61218 5.58398 2.61218 5.70361 2.70807L9.17871 4.96075L8.74731 5.63184Z" fill="#FFFFFF" fill-opacity="1.000000" fill-rule="nonzero"/>
</svg>
