<svg width="20.000000" height="20.000000" viewBox="0 0 20 20" fill="none" xmlns="http://www.w3.org/2000/svg" xmlns:xlink="http://www.w3.org/1999/xlink">
	<desc>
			Created with Pixso.
	</desc>
	<defs>
		<linearGradient id="paint_linear_973_1526_0" x1="4.998293" y1="18.662266" x2="15.000008" y2="1.338878" gradientUnits="userSpaceOnUse">
			<stop stop-color="#FEC053"/>
			<stop offset="0.327000" stop-color="#F2203E"/>
			<stop offset="0.648000" stop-color="#B729A8"/>
			<stop offset="1.000000" stop-color="#5342D6"/>
		</linearGradient>
	</defs>
	<path id="Vector" d="M10 0C15.5 0 20 4.5 20 10C20 15.5 15.5 20 10 20C4.5 20 0 15.5 0 10C0 4.5 4.5 0 10 0Z" fill="url(#paint_linear_973_1526_0)" fill-opacity="1.000000" fill-rule="nonzero"/>
	<path id="Vector" d="M12.9375 3.75L7 3.75C5.1875 3.75 3.75 5.25 3.75 7.125L3.75 12.875C3.75 14.6875 5.1875 16.1875 7.0625 16.25L13 16.25C14.8125 16.25 16.3125 14.75 16.3125 12.875L16.3125 7.125C16.25 5.25 14.8125 3.75 12.9375 3.75ZM15.125 12.8125C15.125 14.0625 14.125 15.125 12.8125 15.125L7.125 15.125C5.875 15.125 4.8125 14.0625 4.875 12.8125L4.875 7.1875C4.875 5.9375 5.875 4.875 7.125 4.875L12.8125 4.875C14.0625 4.875 15.125 5.9375 15.125 7.1875L15.125 12.8125Z" fill="#FFFFFF" fill-opacity="1.000000" fill-rule="nonzero"/>
	<path id="Vector" d="M10 6.8125C8.25 6.75 6.75 8.1875 6.75 9.9375C6.6875 11.6875 8.125 13.1875 9.875 13.1875C11.625 13.1875 13.125 11.8125 13.125 10.0625L13.125 10C13.1875 8.25 11.75 6.8125 10 6.8125ZM10 12.0625C8.875 12.0625 7.9375 11.1875 7.875 10.0625C7.875 8.9375 8.75 8 9.875 7.9375C11 7.875 11.9375 8.8125 12 9.9375L12 10C12.0625 11.125 11.125 12.0625 10 12.0625Z" fill="#FFFFFF" fill-opacity="1.000000" fill-rule="nonzero"/>
	<path id="Vector" d="M13.3125 5.875C13.6875 5.875 14 6.1875 14 6.625C14 7.0625 13.6875 7.375 13.3125 7.375C12.9375 7.375 12.625 7.0625 12.625 6.625C12.625 6.1875 12.9375 5.875 13.3125 5.875Z" fill="#FFFFFF" fill-opacity="1.000000" fill-rule="nonzero"/>
</svg>
