<svg width="242.000000" height="125.000000" viewBox="0 0 242 125" fill="none" xmlns="http://www.w3.org/2000/svg" xmlns:xlink="http://www.w3.org/1999/xlink">
	<desc>
			Created with Pixso.
	</desc>
	<defs>
		<clipPath id="clip1079_3232">
			<rect id="logo_trembita 3" width="242.000000" height="125.000000" fill="white" fill-opacity="0"/>
		</clipPath>
		<radialGradient id="paint_radial_1079_3262_0" cx="0.000000" cy="0.000000" r="1.000000" gradientUnits="userSpaceOnUse" gradientTransform="translate(120.79 59.3541) rotate(20.6958) scale(79.0747 76.4074)">
			<stop stop-color="#FFE498"/>
			<stop offset="0.701469" stop-color="#FFD122"/>
		</radialGradient>
		<radialGradient id="paint_radial_1079_3263_0" cx="0.000000" cy="0.000000" r="1.000000" gradientUnits="userSpaceOnUse" gradientTransform="translate(122.669 16.1326) rotate(60.9417) scale(51.5565 63.9763)">
			<stop stop-color="#FFE498"/>
			<stop offset="0.701469" stop-color="#FFD122"/>
		</radialGradient>
		<radialGradient id="paint_radial_1079_3264_0" cx="0.000000" cy="0.000000" r="1.000000" gradientUnits="userSpaceOnUse" gradientTransform="translate(122.669 28.4519) rotate(60.8125) scale(36.0673 44.881)">
			<stop stop-color="#FFE498"/>
			<stop offset="0.701469" stop-color="#FFD122"/>
		</radialGradient>
		<radialGradient id="paint_radial_1079_3265_0" cx="0.000000" cy="0.000000" r="1.000000" gradientUnits="userSpaceOnUse" gradientTransform="translate(180.112 23.3781) rotate(68.6342) scale(50.0833 49.6651)">
			<stop stop-color="#FFE498"/>
			<stop offset="0.701469" stop-color="#FFD122"/>
		</radialGradient>
		<radialGradient id="paint_radial_1079_3266_0" cx="0.000000" cy="0.000000" r="1.000000" gradientUnits="userSpaceOnUse" gradientTransform="translate(175.994 35.6687) rotate(68.4954) scale(33.6321 33.5256)">
			<stop stop-color="#FFE498"/>
			<stop offset="0.701469" stop-color="#FFD122"/>
		</radialGradient>
		<radialGradient id="paint_radial_1079_3267_0" cx="0.000000" cy="0.000000" r="1.000000" gradientUnits="userSpaceOnUse" gradientTransform="translate(65.8524 21.7583) rotate(68.5758) scale(50.1033 49.7943)">
			<stop stop-color="#FFE498"/>
			<stop offset="0.701469" stop-color="#FFD122"/>
		</radialGradient>
		<radialGradient id="paint_radial_1079_3268_0" cx="0.000000" cy="0.000000" r="1.000000" gradientUnits="userSpaceOnUse" gradientTransform="translate(69.9697 34.0318) rotate(68.7043) scale(33.7954 33.4243)">
			<stop stop-color="#FFE498"/>
			<stop offset="0.701469" stop-color="#FFD122"/>
		</radialGradient>
		<radialGradient id="paint_radial_1079_3269_0" cx="0.000000" cy="0.000000" r="1.000000" gradientUnits="userSpaceOnUse" gradientTransform="translate(149.422 4.56945) rotate(83.5743) scale(35.2516 11.4584)">
			<stop stop-color="#FFE498"/>
			<stop offset="0.701469" stop-color="#FFD122"/>
		</radialGradient>
		<radialGradient id="paint_radial_1079_3270_0" cx="0.000000" cy="0.000000" r="1.000000" gradientUnits="userSpaceOnUse" gradientTransform="translate(136.449 -3.19195) rotate(88.2372) scale(37.4094 3.36159)">
			<stop stop-color="#FFE498"/>
			<stop offset="0.701469" stop-color="#FFD122"/>
		</radialGradient>
	</defs>
	<rect id="logo_trembita 3" width="242.000000" height="125.000000" fill="#FFFFFF" fill-opacity="0"/>
	<g clip-path="url(#clip1079_3232)">
		<path id="Vector" d="M42.2316 87.7401L34.179 87.7401L34.179 85.5806L54.2212 85.5806L54.2212 87.7401L45.9895 87.7401L45.9895 108.26L42.2316 108.26L42.2316 87.7401Z" fill="#fff" fill-opacity="1.000000" fill-rule="nonzero"/>
		<path id="Vector" d="M58.337 85.5806L65.8529 85.5806C68.7161 85.5806 70.8634 86.12 72.4739 87.3799C74.0845 88.6406 74.8003 90.2598 74.8003 92.4202C74.8003 94.5806 74.0845 96.2006 72.4739 97.4605C70.8634 98.7204 68.7161 99.2598 65.8529 99.2598L62.095 99.2598L62.095 108.26L58.337 108.26L58.337 85.5806ZM65.8529 97.2804C67.4634 97.2804 68.7159 96.9202 69.6107 96.0205C70.5055 95.12 71.0424 94.0403 71.0424 92.4202C71.0424 90.8001 70.5055 89.7204 69.6107 88.8199C68.7159 87.9202 67.4634 87.56 65.8529 87.56L62.095 87.56L62.095 97.2804L65.8529 97.2804Z" fill="#fff" fill-opacity="1.000000" fill-rule="nonzero"/>
		<path id="Vector" d="M79.9893 85.5806L93.9469 85.5806L93.9469 87.56L83.9259 87.56L83.9259 95.8404L91.0837 95.8404L91.0837 97.8199L83.9259 97.8199L83.9259 106.1L95.3784 106.1L95.3784 108.08L80.1682 108.08L80.1682 85.5806L79.9893 85.5806Z" fill="#fff" fill-opacity="1.000000" fill-rule="nonzero"/>
		<path id="Vector" d="M99.6729 85.5806L104.863 85.5806L112.2 103.4L119.536 85.5806L124.547 85.5806L124.547 108.26L120.789 108.26L120.789 88.2804L112.736 108.26L110.231 108.26L102.178 88.4605L102.178 108.26L100.031 108.26L100.031 85.5806L99.6729 85.5806Z" fill="#fff" fill-opacity="1.000000" fill-rule="nonzero"/>
		<path id="Vector" d="M131.706 85.5806L147.274 85.5806L147.274 87.56L135.463 87.56L135.463 95.12L140.474 95.12C143.158 95.12 145.305 95.6603 146.737 96.9202C148.347 98 149.064 99.62 149.064 101.78C149.064 103.76 148.347 105.38 146.737 106.64C145.127 107.72 143.158 108.44 140.474 108.44L131.706 108.44L131.706 85.5806ZM140.116 106.28C141.727 106.28 142.8 105.92 143.695 105.021C144.59 104.12 144.948 103.04 144.948 101.6C144.948 100.16 144.59 98.9005 143.695 98.1801C142.8 97.4605 141.548 96.9202 140.116 96.9202L135.463 96.9202L135.463 106.28L140.116 106.28Z" fill="#fff" fill-opacity="1.000000" fill-rule="nonzero"/>
		<path id="Vector" d="M154.433 85.5806L158.369 85.5806L158.369 108.26L154.433 108.26L154.433 85.5806Z" fill="#fff" fill-opacity="1.000000" fill-rule="nonzero"/>
		<path id="Vector" d="M170.538 87.7401L162.485 87.7401L162.485 85.5806L182.528 85.5806L182.528 87.7401L174.295 87.7401L174.295 108.26L170.359 108.26L170.359 87.7401L170.538 87.7401Z" fill="#fff" fill-opacity="1.000000" fill-rule="nonzero"/>
		<path id="Vector" d="M190.579 85.5806L194.516 85.5806L203.463 108.26L199.347 108.26L196.842 101.78L186.642 101.78L184.136 108.26L181.811 108.26L190.579 85.5806ZM196.126 99.8001L191.652 88.6406L191.473 88.6406L187 99.8001L196.126 99.8001Z" fill="#fff" fill-opacity="1.000000" fill-rule="nonzero"/>
		<path id="Vector" d="M56.3678 117.08L60.4836 117.08L60.4836 117.44L57.0836 117.44L57.0836 119.78L58.5151 119.78C59.231 119.78 59.7678 119.96 60.3047 120.32C60.6626 120.68 60.8414 121.04 60.8414 121.58C60.8414 122.12 60.6626 122.48 60.3047 122.84C59.9467 123.2 59.4099 123.38 58.5151 123.38L56.1888 123.38L56.1888 117.08L56.3678 117.08ZM58.6941 123.02C59.231 123.02 59.5889 122.84 59.7677 122.66C59.9467 122.48 60.1257 122.12 60.1257 121.58C60.1257 121.04 59.9467 120.86 59.7677 120.5C59.5889 120.14 59.052 120.14 58.6941 120.14L57.2625 120.14L57.2625 122.84L58.6941 122.84L58.6941 123.02Z" fill="#fff" fill-opacity="1.000000" fill-rule="nonzero"/>
		<path id="Vector" d="M64.2419 123.56C63.8842 123.56 63.7052 123.56 63.5261 123.38C63.3473 123.2 63.1683 123.02 62.9894 122.84C62.8104 122.66 62.8104 122.3 62.8104 121.94L62.8104 121.76L63.3472 121.76L63.3472 122.12C63.3472 122.48 63.3473 122.66 63.5261 122.84C63.7052 123.02 63.8842 123.2 64.2419 123.2C64.4209 123.2 64.7788 123.2 64.7788 123.02C64.7788 122.84 64.9578 122.66 64.9578 122.48C64.9578 122.3 64.9578 121.94 64.7788 121.76L61.9156 117.26L62.8104 117.26L65.1367 121.04C65.1367 121.22 65.3157 121.22 65.3157 121.4C65.3157 121.58 65.4946 121.76 65.4946 121.76L67.1051 117.26L67.6421 117.26L66.0315 122.3C65.8525 122.84 65.6736 123.2 65.3157 123.38C65.1367 123.56 64.7788 123.56 64.2419 123.56Z" fill="#fff" fill-opacity="1.000000" fill-rule="nonzero"/>
		<path id="Vector" d="M68.537 123.02L69.2528 123.02C69.4318 122.48 69.6106 121.76 69.6106 121.22C69.6106 120.5 69.7896 119.78 69.7896 119.06C69.7896 118.88 69.7896 118.88 69.7896 118.7L69.7896 118.52L69.7896 117.26L74.2632 117.26L74.2632 123.02L74.979 123.02L74.979 125L74.2632 125L74.2632 123.38L69.4318 123.38L69.4318 124.82L68.7158 124.82L68.7158 123.02L68.537 123.02ZM73.1896 123.02L73.1896 117.62L70.3264 117.62L70.3264 118.88C70.3264 119.78 70.1475 120.5 70.1475 121.22C69.9685 121.94 69.9685 122.48 69.7896 123.02L73.1896 123.02Z" fill="#fff" fill-opacity="1.000000" fill-rule="nonzero"/>
		<path id="Vector" d="M76.9465 117.08L77.6624 117.08L77.6624 123.38L76.9465 123.38L76.9465 117.08Z" fill="#fff" fill-opacity="1.000000" fill-rule="nonzero"/>
		<path id="Vector" d="M80.5259 117.08L82.8524 117.08C83.5679 117.08 84.105 117.26 84.463 117.44C84.8203 117.8 84.9994 118.16 84.9994 118.7C84.9994 119.06 84.8203 119.42 84.6421 119.6C84.463 119.78 84.105 119.96 83.7468 120.14C84.2841 120.32 84.6412 120.5 84.8203 120.68C84.9994 120.86 85.1785 121.22 85.1785 121.76C85.1785 122.12 84.9994 122.3 84.8203 122.66C84.6412 122.84 84.463 123.02 84.105 123.2C83.7468 123.38 83.3888 123.38 82.8524 123.38L80.3469 123.38L80.3469 117.08L80.5259 117.08ZM83.0315 120.14C83.5679 120.14 83.9259 119.96 84.105 119.78C84.2841 119.6 84.463 119.24 84.463 118.88C84.463 118.52 84.2841 118.16 84.105 117.98C83.9259 117.8 83.5679 117.62 83.0315 117.62L81.4207 117.62L81.4207 120.14L83.0315 120.14ZM83.0315 123.02C83.5679 123.02 83.9259 122.84 84.105 122.66C84.2841 122.48 84.463 122.12 84.463 121.76C84.463 121.4 84.2841 121.04 84.105 120.86C83.7468 120.68 83.3888 120.5 83.0315 120.5L81.2417 120.5L81.2417 123.02L83.0315 123.02Z" fill="#fff" fill-opacity="1.000000" fill-rule="nonzero"/>
		<path id="Vector" d="M87.6824 117.08L91.4407 117.08L91.4407 117.44L88.5768 117.44L88.5768 119.96L90.7245 119.96L90.7245 120.32L88.5768 120.32L88.5768 122.84L91.798 122.84L91.798 123.2L87.6824 123.2L87.6824 117.08Z" fill="#fff" fill-opacity="1.000000" fill-rule="nonzero"/>
		<path id="Vector" d="M93.4097 123.56C93.2306 123.56 93.2306 123.56 93.0524 123.56C92.8733 123.56 92.8733 123.56 92.8733 123.56L92.8733 122.84C93.0524 122.84 93.0524 122.84 93.2306 122.84C93.2306 122.84 93.4097 122.84 93.5886 122.84C93.7677 122.84 93.9468 122.84 93.9468 122.66C94.1259 122.66 94.1259 122.48 94.3048 122.3C94.3048 122.12 94.4839 121.94 94.4839 121.76C94.663 121.4 94.6621 120.86 94.6621 120.32C94.6621 119.78 94.6621 119.06 94.6621 118.16L94.6621 117.08L98.9576 117.08L98.9576 123.38L98.0624 123.38L98.0624 117.62L95.1992 117.62L95.1992 118.34C95.1992 119.42 95.1992 120.14 95.0203 120.86C95.0203 121.58 94.8412 122.12 94.6621 122.48C94.4839 122.84 94.4839 123.02 94.3048 123.2C93.7677 123.56 93.5886 123.56 93.4097 123.56Z" fill="#fff" fill-opacity="1.000000" fill-rule="nonzero"/>
		<path id="Vector" d="M101.463 117.08L102.357 117.08L102.357 119.6L103.61 119.6C104.326 119.6 105.041 119.78 105.399 120.14C105.757 120.5 106.115 120.86 106.115 121.58C106.115 121.94 105.936 122.3 105.757 122.48C105.578 122.66 105.22 123.02 104.862 123.2C104.504 123.38 104.147 123.38 103.61 123.38L101.641 123.38L101.641 117.08L101.463 117.08ZM103.431 123.02C103.968 123.02 104.326 122.84 104.683 122.66C105.041 122.48 105.041 122.12 105.041 121.58C105.041 121.04 104.862 120.86 104.683 120.5C104.504 120.14 103.968 120.14 103.431 120.14L102.178 120.14L102.178 123.02L103.431 123.02Z" fill="#fff" fill-opacity="1.000000" fill-rule="nonzero"/>
		<path id="Vector" d="M108.083 117.08L108.979 117.08L108.979 119.96L112.557 119.96L112.557 117.08L113.452 117.08L113.452 123.38L112.557 123.38L112.557 120.5L108.979 120.5L108.979 123.38L108.083 123.38L108.083 117.08Z" fill="#fff" fill-opacity="1.000000" fill-rule="nonzero"/>
		<path id="Vector" d="M117.747 117.08L118.642 117.08L121.147 123.38L120.253 123.38L119.536 121.58L116.494 121.58L115.779 123.38L115.242 123.38L117.747 117.08ZM119.357 121.22L117.926 117.8L116.494 121.22L119.357 121.22Z" fill="#fff" fill-opacity="1.000000" fill-rule="nonzero"/>
		<path id="Vector" d="M125.979 117.08L126.873 117.08L126.873 119.96L127.948 119.96L130.274 117.08L130.811 117.08L128.484 119.96L130.989 123.38L130.095 123.38L127.948 120.5L126.873 120.5L126.873 123.38L125.979 123.38L125.979 117.08Z" fill="#fff" fill-opacity="1.000000" fill-rule="nonzero"/>
		<path id="Vector" d="M135.463 123.56C134.926 123.56 134.21 123.38 133.852 123.2C133.315 122.84 132.958 122.48 132.6 121.94C132.242 121.4 132.242 120.86 132.242 120.32C132.242 119.78 132.421 119.06 132.6 118.7C132.958 118.16 133.315 117.8 133.852 117.44C134.389 117.08 134.926 117.08 135.463 117.08C135.999 117.08 136.715 117.26 137.073 117.44C137.61 117.8 137.968 118.16 138.147 118.7C138.505 119.24 138.505 119.78 138.505 120.32C138.505 120.86 138.326 121.58 138.147 121.94C137.789 122.48 137.432 122.84 137.073 123.2C136.536 123.38 135.999 123.56 135.463 123.56ZM135.463 123.02C135.999 123.02 136.357 122.84 136.715 122.66C137.073 122.48 137.431 122.12 137.61 121.76C137.789 121.4 137.968 120.86 137.968 120.32C137.968 119.78 137.789 119.24 137.61 118.88C137.431 118.52 137.073 118.16 136.715 117.98C136.357 117.8 135.999 117.62 135.463 117.62C134.926 117.62 134.568 117.8 134.21 117.98C133.852 118.16 133.494 118.52 133.315 118.88C133.136 119.24 132.958 119.78 132.958 120.32C132.958 120.86 133.136 121.4 133.315 121.76C133.494 122.12 133.852 122.48 134.21 122.66C134.568 122.84 134.926 123.02 135.463 123.02Z" fill="#fff" fill-opacity="1.000000" fill-rule="nonzero"/>
		<path id="Vector" d="M141.011 117.08L142.084 117.08L144.41 122.48L146.737 117.08L147.81 117.08L147.81 123.38L146.916 123.38L146.916 117.62L144.589 123.38L144.052 123.38L141.726 117.62L141.726 123.38L141.189 123.38L141.189 117.08L141.011 117.08Z" fill="#fff" fill-opacity="1.000000" fill-rule="nonzero"/>
		<path id="Vector" d="M150.494 117.08L155.684 117.08L155.684 123.38L154.789 123.38L154.789 117.62L151.21 117.62L151.21 123.38L150.315 123.38L150.315 117.08L150.494 117.08Z" fill="#fff" fill-opacity="1.000000" fill-rule="nonzero"/>
		<path id="Vector" d="M160.158 117.08L161.053 117.08L163.558 123.38L162.663 123.38L161.947 121.58L158.905 121.58L158.19 123.38L157.653 123.38L160.158 117.08ZM161.768 121.22L160.337 117.8L158.905 121.22L161.768 121.22Z" fill="#fff" fill-opacity="1.000000" fill-rule="nonzero"/>
		<path id="Vector" d="M165.347 117.08L166.242 117.08L166.242 119.96L169.82 119.96L169.82 117.08L170.716 117.08L170.716 123.38L169.82 123.38L169.82 120.5L166.242 120.5L166.242 123.38L165.347 123.38L165.347 117.08Z" fill="#fff" fill-opacity="1.000000" fill-rule="nonzero"/>
		<path id="Vector" d="M173.399 117.08L174.294 117.08L174.294 123.38L173.399 123.38L173.399 117.08Z" fill="#fff" fill-opacity="1.000000" fill-rule="nonzero"/>
		<path id="Vector" d="M178.052 120.68C177.694 120.5 177.336 120.32 176.978 120.14C176.62 119.96 176.621 119.42 176.621 119.06C176.621 118.52 176.799 117.98 177.336 117.62C177.873 117.26 178.409 117.08 179.125 117.08L181.094 117.08L181.094 123.38L180.199 123.38L180.199 120.68L179.125 120.68L177.157 123.38L176.262 123.38L178.052 120.68ZM180.378 120.5L180.378 117.62L179.125 117.62C178.588 117.62 178.23 117.8 177.873 117.98C177.515 118.16 177.515 118.52 177.515 119.06C177.515 119.42 177.694 119.78 177.873 120.14C178.23 120.32 178.588 120.5 179.125 120.5L180.378 120.5Z" fill="#fff" fill-opacity="1.000000" fill-rule="nonzero"/>
		<path id="Vector" d="M34.1782 120.423L47.9573 121.142L47.9573 119.702L34.1782 120.423Z" fill="#FFFFFF" fill-opacity="1.000000" fill-rule="nonzero"/>
		<path id="Vector" d="M203.463 120.14L189.685 119.6L189.685 121.04L203.463 120.14Z" fill="#FFFFFF" fill-opacity="1.000000" fill-rule="nonzero"/>
		<path id="Vector" d="M119.537 61.7396C67.2844 61.7396 21.8317 71.4595 0 85.6793C24.8738 73.4395 68.8949 65.3396 119.179 65.3396C171.79 65.3396 217.601 74.1595 241.58 87.2993C220.822 72.1796 173.938 61.7396 119.537 61.7396Z" fill="url(#paint_radial_1079_3262_0)" fill-opacity="1.000000" fill-rule="nonzero"/>
		<path id="Vector" d="M90.369 59.9395L122.58 27.5397L155.148 60.4795L163.559 61.1995L122.58 19.9798L106.832 35.9997L106.832 27.5397L99.4955 27.5397L99.4955 43.3796L81.7797 61.1995L90.369 59.9395Z" fill="url(#paint_radial_1079_3263_0)" fill-opacity="1.000000" fill-rule="nonzero"/>
		<path id="Vector" d="M93.9475 59.7596L96.8107 59.5797L122.58 33.6599L148.527 59.5797L151.39 59.9396L122.58 31.1399L93.9475 59.7596Z" fill="url(#paint_radial_1079_3264_0)" fill-opacity="1.000000" fill-rule="nonzero"/>
		<path id="Vector" d="M154.075 48.2396L167.496 34.9197L200.064 67.6794L209.906 70.0194L167.496 27.3597L150.316 44.6396L154.075 48.2396Z" fill="url(#paint_radial_1079_3265_0)" fill-opacity="1.000000" fill-rule="nonzero"/>
		<path id="Vector" d="M155.864 50.0397L157.295 51.1197L167.495 40.8598L192.905 66.2397L196.126 66.9596L167.495 38.3398L155.864 50.0397Z" fill="url(#paint_radial_1079_3266_0)" fill-opacity="1.000000" fill-rule="nonzero"/>
		<path id="Vector" d="M78.5577 33.2999L91.7998 46.7998L95.7372 43.0198L78.5577 25.7399L35.9681 68.3996L45.8103 66.0596L78.5577 33.2999Z" fill="url(#paint_radial_1079_3267_0)" fill-opacity="1.000000" fill-rule="nonzero"/>
		<path id="Vector" d="M78.5591 36.7197L49.9275 65.5196L53.1486 64.7996L78.5591 39.2398L88.7592 49.6797L90.0117 48.4196L78.5591 36.7197Z" fill="url(#paint_radial_1079_3268_0)" fill-opacity="1.000000" fill-rule="nonzero"/>
		<path id="Vector" d="M155.864 8.27975L153.18 7.55981L142.98 38.8796L143.696 39.5996L155.864 8.27975Z" fill="url(#paint_radial_1079_3269_0)" fill-opacity="1.000000" fill-rule="nonzero"/>
		<path id="Vector" d="M137.52 33.2249C137.785 33.5442 138.301 33.3468 138.287 32.9315L137.297 1.36203C137.274 0.61763 136.641 0.0411072 135.902 0.0906525C135.171 0.139694 134.622 0.78363 134.686 1.51817L137.421 32.9833C137.429 33.0721 137.463 33.1565 137.52 33.2249Z" fill="url(#paint_radial_1079_3270_0)" fill-opacity="1.000000" fill-rule="nonzero"/>
	</g>
</svg>
