<svg width="56.000000" height="56.000000" viewBox="0 0 56 56" fill="none" xmlns="http://www.w3.org/2000/svg" xmlns:xlink="http://www.w3.org/1999/xlink">
	<desc>
			Created with Pixso.
	</desc>
	<defs/>
	<path id="Vector" d="M28 0C12.5359 0 0 12.5359 0 28C0 43.4641 12.5359 56 28 56C43.4641 56 56 43.4641 56 28C56 12.5359 43.4641 0 28 0ZM27.6665 12.0164C27.7566 11.6312 28.1069 11.4588 28.1687 11.4284C28.3298 11.3487 28.4734 11.3369 28.7622 11.312C28.7622 11.312 29.0105 11.2958 29.2283 11.302C36.6313 11.5005 43.0254 16.7564 43.9463 24.7184C44.0078 25.2504 44.113 25.8795 44.1436 27.1749C44.1499 27.4344 44.1541 27.9054 43.8354 28.2091C43.6919 28.346 43.5269 28.4069 43.4119 28.4368C43.252 28.4013 43 28.3204 42.8064 28.1083C42.5444 27.8208 42.53 27.4468 42.5232 27.3187C42.4456 25.8732 42.2407 24.4291 41.9084 23.0197C40.6777 17.7949 35.9346 13.6715 30.5916 13.0741C29.9705 13.0044 29.3477 12.936 28.7236 12.9074C28.3005 12.8881 27.8799 12.8097 27.7144 12.526C27.5942 12.3175 27.6533 12.073 27.6665 12.0164ZM30.5742 16.9363C30.5605 16.9338 30.2625 16.9319 29.8853 16.833C29.5886 16.7552 29.3572 16.6911 29.1809 16.4876C29.0142 16.2948 28.9688 16.0583 28.9619 15.8816C29 15.7453 29.0801 15.5406 29.2649 15.3913C29.5256 15.1804 29.8547 15.1928 30.0098 15.2003C34.3735 15.418 36.9575 17.9449 36.9575 17.9449C37.1814 18.1639 38.1191 19.101 38.9348 20.6211C39.9187 22.4541 40.2024 24.1609 40.2939 25.2062C40.3162 25.4445 40.3101 25.798 40.1458 26.1613C40.0779 26.3107 40.0015 26.4756 39.8215 26.6056C39.6033 26.7636 39.3667 26.7755 39.2654 26.7742C39.1528 26.7319 39.0122 26.6597 38.8882 26.5316C38.7283 26.366 38.655 26.1856 38.6467 26.1109C38.4165 24.108 38.103 22.1517 36.8711 20.4599C35.3066 18.3132 33.0916 17.3619 30.5742 16.9363ZM36.2805 24.5473C36.2383 25.1278 36.0024 25.3419 35.9434 25.3923C35.7671 25.541 35.5637 25.582 35.4404 25.5957C35.2981 25.5677 35.0957 25.5043 34.9316 25.3419C34.6882 25.1011 34.6572 24.77 34.6448 24.6618C34.5869 24.1596 34.2266 22.5531 33.4045 21.812C32.8906 21.3484 32.1807 21.1039 31.1423 20.9533C30.7253 20.893 30.3208 20.8084 30.1746 20.5321C30.0632 20.3212 30.1392 20.0828 30.1621 20.0076C30.3328 19.4575 30.9998 19.2988 31.0527 19.2876C31.4956 19.3499 34.3274 19.786 35.6223 21.8916C36.3228 23.0309 36.3042 24.2231 36.2805 24.5473ZM44.0789 40.1439C43.0166 41.4375 41.9907 42.7996 40.7324 43.8822C39.6523 44.8112 38.24 44.9232 36.8342 44.3489C25.2864 39.6343 17.0042 31.6188 12.2273 20.0505C12.1072 19.7605 12.0103 19.4606 11.9082 19.1638C11.0139 16.5673 11.2834 15.5587 13.4138 13.8121C14.1101 13.2409 14.8555 12.7238 15.6116 12.2329C16.8821 11.4078 18.2795 11.4178 19.2402 12.5751C20.8369 14.4996 22.3601 16.5132 23.6707 18.6393C24.6487 20.2266 24.2991 21.1251 22.8635 22.3204C22.532 22.5966 22.176 22.8443 21.8438 23.1199C21.0132 23.81 20.6621 24.6325 21.0286 25.7239C22.6345 30.5088 25.9858 33.534 30.6575 35.1412C31.2007 35.3279 32.0493 34.9085 32.6436 34.5713C33.0874 34.3193 33.3474 33.7456 33.6909 33.3163C34.6187 32.1558 36.1194 31.6649 37.3582 32.4508C39.5728 33.8557 41.6946 35.4163 43.7759 37.0148C44.2219 37.3576 44.3303 38.1397 44.571 38.668C44.3762 39.2846 44.3496 39.8141 44.0789 40.1439Z" fill="#7D51A0" fill-opacity="1.000000" fill-rule="nonzero"/>
</svg>
